<?xml version="1.0" encoding="UTF-8" standalone="no"?>
<!DOCTYPE svg PUBLIC "-//W3C//DTD SVG 1.1//EN"
 "http://www.w3.org/Graphics/SVG/1.1/DTD/svg11.dtd">
<!-- Generated by graphviz version 2.43.0 (0)
 -->
<!-- Title: easy45 Pages: 1 -->
<svg width="980pt" height="759pt"
 viewBox="0.00 0.00 980.00 759.00" xmlns="http://www.w3.org/2000/svg" xmlns:xlink="http://www.w3.org/1999/xlink">
<g id="graph0" class="graph" transform="scale(1 1) rotate(0) translate(4 755)">
<title>easy45</title>
<polygon fill="white" stroke="transparent" points="-4,4 -4,-755 976,-755 976,4 -4,4"/>
<g id="clust1" class="cluster">
<title>cluster_inputs</title>
<polygon fill="white" stroke="#9aa0a6" stroke-dasharray="5,2" points="25,-647 25,-743 831,-743 831,-647 25,-647"/>
<text text-anchor="middle" x="50" y="-730.2" font-family="Helvetica,sans-Serif" font-size="11.00" fill="#5f6368">INPUT</text>
</g>
<g id="clust2" class="cluster">
<title>cluster_outputs</title>
<polygon fill="white" stroke="#9aa0a6" stroke-dasharray="5,2" points="8,-8 8,-80 964,-80 964,-8 8,-8"/>
<text text-anchor="middle" x="39" y="-67.2" font-family="Helvetica,sans-Serif" font-size="11.00" fill="#5f6368">OUTPUT</text>
</g>
<!-- reads -->
<g id="node1" class="node">
<title>reads</title>
<polygon fill="#d2e3fc" stroke="black" points="217.04,-715 70.62,-715 32.96,-655 179.38,-655 217.04,-715"/>
<text text-anchor="middle" x="125" y="-688" font-family="Helvetica,sans-Serif" font-size="10.00">HiFi reads</text>
<text text-anchor="middle" x="125" y="-677" font-family="Helvetica,sans-Serif" font-size="10.00">(FASTA/FASTQ)</text>
</g>
<!-- s0 -->
<g id="node4" class="node">
<title>s0</title>
<path fill="#fef7e0" stroke="#e8a33d" d="M412.5,-622C412.5,-622 305.5,-622 305.5,-622 299.5,-622 293.5,-616 293.5,-610 293.5,-610 293.5,-598 293.5,-598 293.5,-592 299.5,-586 305.5,-586 305.5,-586 412.5,-586 412.5,-586 418.5,-586 424.5,-592 424.5,-598 424.5,-598 424.5,-610 424.5,-610 424.5,-616 418.5,-622 412.5,-622"/>
<text text-anchor="middle" x="359" y="-607" font-family="Helvetica,sans-Serif" font-size="10.00">S0 &#160;Organelle depletion</text>
<text text-anchor="middle" x="359" y="-596" font-family="Helvetica,sans-Serif" font-size="10.00">minimap2 &#160;(optional)</text>
</g>
<!-- reads&#45;&gt;s0 -->
<g id="edge1" class="edge">
<title>reads&#45;&gt;s0</title>
<path fill="none" stroke="#666666" d="M184.29,-662.57C198.88,-657.39 214.48,-651.93 229,-647 250.62,-639.66 274.36,-631.91 295.57,-625.08"/>
<polygon fill="#666666" stroke="#666666" points="296.67,-628.41 305.12,-622.02 294.53,-621.74 296.67,-628.41"/>
</g>
<!-- anchor -->
<g id="node2" class="node">
<title>anchor</title>
<polygon fill="#d2e3fc" stroke="black" points="822.89,-715 566.95,-715 501.11,-655 757.05,-655 822.89,-715"/>
<text text-anchor="middle" x="662" y="-688" font-family="Helvetica,sans-Serif" font-size="10.00">Bundled 45S anchor</text>
<text text-anchor="middle" x="662" y="-677" font-family="Helvetica,sans-Serif" font-size="10.00">Arabidopsis T2T (OR453402)</text>
</g>
<!-- s1 -->
<g id="node5" class="node">
<title>s1</title>
<path fill="#fef7e0" stroke="#e8a33d" d="M688.5,-544C688.5,-544 539.5,-544 539.5,-544 533.5,-544 527.5,-538 527.5,-532 527.5,-532 527.5,-520 527.5,-520 527.5,-514 533.5,-508 539.5,-508 539.5,-508 688.5,-508 688.5,-508 694.5,-508 700.5,-514 700.5,-520 700.5,-520 700.5,-532 700.5,-532 700.5,-538 694.5,-544 688.5,-544"/>
<text text-anchor="middle" x="614" y="-529" font-family="Helvetica,sans-Serif" font-size="10.00">S1 &#160;Recruit rDNA reads</text>
<text text-anchor="middle" x="614" y="-518" font-family="Helvetica,sans-Serif" font-size="10.00">minimap2 &#45;x map&#45;hifi vs anchor</text>
</g>
<!-- anchor&#45;&gt;s1 -->
<g id="edge4" class="edge">
<title>anchor&#45;&gt;s1</title>
<path fill="none" stroke="#666666" d="M653.08,-654.84C644.25,-625.93 630.82,-582.01 622.23,-553.92"/>
<polygon fill="#666666" stroke="#666666" points="625.57,-552.88 619.3,-544.34 618.88,-554.93 625.57,-552.88"/>
</g>
<!-- orgref -->
<g id="node3" class="node">
<title>orgref</title>
<polygon fill="#e8eaed" stroke="black" points="476.31,-715 289.7,-715 241.69,-655 428.3,-655 476.31,-715"/>
<text text-anchor="middle" x="359" y="-688" font-family="Helvetica,sans-Serif" font-size="10.00">Organelle reference</text>
<text text-anchor="middle" x="359" y="-677" font-family="Helvetica,sans-Serif" font-size="10.00">(optional)</text>
</g>
<!-- orgref&#45;&gt;s0 -->
<g id="edge2" class="edge">
<title>orgref&#45;&gt;s0</title>
<path fill="none" stroke="#666666" stroke-dasharray="5,2" d="M359,-654.58C359,-647.36 359,-639.65 359,-632.52"/>
<polygon fill="#666666" stroke="#666666" points="362.5,-632.28 359,-622.28 355.5,-632.28 362.5,-632.28"/>
</g>
<!-- s0&#45;&gt;s1 -->
<g id="edge3" class="edge">
<title>s0&#45;&gt;s1</title>
<path fill="none" stroke="#666666" d="M416.23,-585.94C454.89,-574.42 506.09,-559.16 546.71,-547.06"/>
<polygon fill="#666666" stroke="#666666" points="547.94,-550.34 556.52,-544.13 545.94,-543.63 547.94,-550.34"/>
<text text-anchor="middle" x="513.5" y="-562.8" font-family="Helvetica,sans-Serif" font-size="9.00">reads</text>
</g>
<!-- s2 -->
<g id="node6" class="node">
<title>s2</title>
<path fill="#fef7e0" stroke="#e8a33d" d="M725.5,-466C725.5,-466 502.5,-466 502.5,-466 496.5,-466 490.5,-460 490.5,-454 490.5,-454 490.5,-442 490.5,-442 490.5,-436 496.5,-430 502.5,-430 502.5,-430 725.5,-430 725.5,-430 731.5,-430 737.5,-436 737.5,-442 737.5,-442 737.5,-454 737.5,-454 737.5,-460 731.5,-466 725.5,-466"/>
<text text-anchor="middle" x="614" y="-451" font-family="Helvetica,sans-Serif" font-size="10.00">S2 &#160;Locate 18S / 5.8S / 28S; flag spanning reads</text>
<text text-anchor="middle" x="614" y="-440" font-family="Helvetica,sans-Serif" font-size="10.00">barrnap &#45;&#45;kingdom euk</text>
</g>
<!-- s1&#45;&gt;s2 -->
<g id="edge5" class="edge">
<title>s1&#45;&gt;s2</title>
<path fill="none" stroke="#666666" d="M614,-507.75C614,-498.52 614,-486.93 614,-476.49"/>
<polygon fill="#666666" stroke="#666666" points="617.5,-476.18 614,-466.18 610.5,-476.18 617.5,-476.18"/>
<text text-anchor="middle" x="665.5" y="-484.8" font-family="Helvetica,sans-Serif" font-size="9.00">recruited reads (rDNA)</text>
</g>
<!-- s3 -->
<g id="node7" class="node">
<title>s3</title>
<path fill="#fef7e0" stroke="#e8a33d" d="M629,-388C629,-388 405,-388 405,-388 399,-388 393,-382 393,-376 393,-376 393,-364 393,-364 393,-358 399,-352 405,-352 405,-352 629,-352 629,-352 635,-352 641,-358 641,-364 641,-364 641,-376 641,-376 641,-382 635,-388 629,-388"/>
<text text-anchor="middle" x="517" y="-373" font-family="Helvetica,sans-Serif" font-size="10.00">S3 &#160;Excise one transcribed unit, orient 18S→26S</text>
<text text-anchor="middle" x="517" y="-362" font-family="Helvetica,sans-Serif" font-size="10.00">core (for clustering) + margin (for consensus)</text>
</g>
<!-- s2&#45;&gt;s3 -->
<g id="edge6" class="edge">
<title>s2&#45;&gt;s3</title>
<path fill="none" stroke="#666666" d="M591.99,-429.75C578.72,-419.36 561.63,-405.97 547.12,-394.6"/>
<polygon fill="#666666" stroke="#666666" points="548.95,-391.59 538.92,-388.18 544.64,-397.1 548.95,-391.59"/>
<text text-anchor="middle" x="619.5" y="-406.8" font-family="Helvetica,sans-Serif" font-size="9.00">per&#45;read gene coords</text>
</g>
<!-- s6 -->
<g id="node10" class="node">
<title>s6</title>
<path fill="#fef7e0" stroke="#e8a33d" d="M848.5,-222C848.5,-222 621.5,-222 621.5,-222 615.5,-222 609.5,-216 609.5,-210 609.5,-210 609.5,-198 609.5,-198 609.5,-192 615.5,-186 621.5,-186 621.5,-186 848.5,-186 848.5,-186 854.5,-186 860.5,-192 860.5,-198 860.5,-198 860.5,-210 860.5,-210 860.5,-216 854.5,-222 848.5,-222"/>
<text text-anchor="middle" x="735" y="-207" font-family="Helvetica,sans-Serif" font-size="10.00">S6 &#160;IGS recovery (complete&#45;only, length&#45;binned)</text>
<text text-anchor="middle" x="735" y="-196" font-family="Helvetica,sans-Serif" font-size="10.00">abpoa within length class</text>
</g>
<!-- s2&#45;&gt;s6 -->
<g id="edge10" class="edge">
<title>s2&#45;&gt;s6</title>
<path fill="none" stroke="#666666" stroke-dasharray="5,2" d="M655.37,-429.95C662.34,-425.59 668.94,-420.31 674,-414 717.6,-359.63 730.04,-275.17 733.59,-232.16"/>
<polygon fill="#666666" stroke="#666666" points="737.08,-232.39 734.31,-222.16 730.1,-231.88 737.08,-232.39"/>
<text text-anchor="middle" x="755.5" y="-328.8" font-family="Helvetica,sans-Serif" font-size="9.00">reads spanning</text>
<text text-anchor="middle" x="755.5" y="-318.8" font-family="Helvetica,sans-Serif" font-size="9.00">26S → next 18S</text>
</g>
<!-- s4 -->
<g id="node8" class="node">
<title>s4</title>
<path fill="#fef7e0" stroke="#e8a33d" d="M588.5,-300C588.5,-300 445.5,-300 445.5,-300 439.5,-300 433.5,-294 433.5,-288 433.5,-288 433.5,-276 433.5,-276 433.5,-270 439.5,-264 445.5,-264 445.5,-264 588.5,-264 588.5,-264 594.5,-264 600.5,-270 600.5,-276 600.5,-276 600.5,-288 600.5,-288 600.5,-294 594.5,-300 588.5,-300"/>
<text text-anchor="middle" x="517" y="-285" font-family="Helvetica,sans-Serif" font-size="10.00">S4 &#160;Coarse cluster of units</text>
<text text-anchor="middle" x="517" y="-274" font-family="Helvetica,sans-Serif" font-size="10.00">vsearch &#45;&#45;cluster_size &#45;&#45;id 0.97</text>
</g>
<!-- s3&#45;&gt;s4 -->
<g id="edge7" class="edge">
<title>s3&#45;&gt;s4</title>
<path fill="none" stroke="#666666" d="M517,-351.6C517,-339.75 517,-323.82 517,-310.29"/>
<polygon fill="#666666" stroke="#666666" points="520.5,-310.08 517,-300.08 513.5,-310.08 520.5,-310.08"/>
<text text-anchor="middle" x="540" y="-323.8" font-family="Helvetica,sans-Serif" font-size="9.00">core units</text>
</g>
<!-- s5 -->
<g id="node9" class="node">
<title>s5</title>
<path fill="#fbbc04" stroke="#b06000" stroke-width="2" d="M487.5,-222C487.5,-222 212.5,-222 212.5,-222 206.5,-222 200.5,-216 200.5,-210 200.5,-210 200.5,-198 200.5,-198 200.5,-192 206.5,-186 212.5,-186 212.5,-186 487.5,-186 487.5,-186 493.5,-186 499.5,-192 499.5,-198 499.5,-198 499.5,-210 499.5,-210 499.5,-216 493.5,-222 487.5,-222"/>
<text text-anchor="middle" x="350" y="-207" font-family="Helvetica,sans-Serif" font-size="10.00">S5 &#160;Consensus + mature&#45;boundary trim + ribotype calling</text>
<text text-anchor="middle" x="350" y="-196" font-family="Helvetica,sans-Serif" font-size="10.00">abpoa &#160;| &#160;cmsearch vs Rfam SSU+LSU &#160;| &#160;variant.py</text>
</g>
<!-- s3&#45;&gt;s5 -->
<g id="edge8" class="edge">
<title>s3&#45;&gt;s5</title>
<path fill="none" stroke="#666666" stroke-dasharray="5,2" d="M441.12,-351.87C412.34,-341.56 381.97,-325.33 363,-300 348.55,-280.71 346.29,-252.86 347.05,-232.3"/>
<polygon fill="#666666" stroke="#666666" points="350.54,-232.49 347.67,-222.29 343.56,-232.05 350.54,-232.49"/>
<text text-anchor="middle" x="392" y="-279.8" font-family="Helvetica,sans-Serif" font-size="9.00">margin units</text>
</g>
<!-- s4&#45;&gt;s5 -->
<g id="edge9" class="edge">
<title>s4&#45;&gt;s5</title>
<path fill="none" stroke="#666666" d="M479.52,-263.94C455.11,-252.84 423.07,-238.25 396.97,-226.37"/>
<polygon fill="#666666" stroke="#666666" points="398.19,-223.09 387.64,-222.13 395.29,-229.46 398.19,-223.09"/>
<text text-anchor="middle" x="476.5" y="-240.8" font-family="Helvetica,sans-Serif" font-size="9.00">clusters + freq</text>
</g>
<!-- s7 -->
<g id="node11" class="node">
<title>s7</title>
<path fill="#fef7e0" stroke="#e8a33d" d="M820,-147C820,-147 650,-147 650,-147 644,-147 638,-141 638,-135 638,-135 638,-123 638,-123 638,-117 644,-111 650,-111 650,-111 820,-111 820,-111 826,-111 832,-117 832,-123 832,-123 832,-135 832,-135 832,-141 826,-147 820,-147"/>
<text text-anchor="middle" x="735" y="-132" font-family="Helvetica,sans-Serif" font-size="10.00">S7 &#160;Annotate + ITS barcode + report</text>
<text text-anchor="middle" x="735" y="-121" font-family="Helvetica,sans-Serif" font-size="10.00">ITSx</text>
</g>
<!-- s5&#45;&gt;s7 -->
<g id="edge11" class="edge">
<title>s5&#45;&gt;s7</title>
<path fill="none" stroke="#666666" d="M447.16,-185.98C499.85,-176.58 566.06,-164.52 625,-153 631.5,-151.73 638.2,-150.39 644.95,-149.03"/>
<polygon fill="#666666" stroke="#666666" points="645.74,-152.44 654.85,-147.02 644.35,-145.58 645.74,-152.44"/>
</g>
<!-- vclass -->
<g id="node12" class="node">
<title>vclass</title>
<polygon fill="#fce8e6" stroke="#c5221f" points="606.5,-153 363.5,-153 363.5,-105 612.5,-105 612.5,-147 606.5,-153"/>
<polyline fill="none" stroke="#c5221f" points="606.5,-153 606.5,-147 "/>
<polyline fill="none" stroke="#c5221f" points="612.5,-147 606.5,-147 "/>
<text text-anchor="start" x="371.5" y="-141.8" font-family="Helvetica,sans-Serif" font-size="9.00">variant.py (vs primary):</text>
<text text-anchor="start" x="371.5" y="-131.8" font-family="Helvetica,sans-Serif" font-size="9.00"> &#160;variant &#160;= real subs, ≥ 90% id &#160;→ kept</text>
<text text-anchor="start" x="371.5" y="-121.8" font-family="Helvetica,sans-Serif" font-size="9.00"> &#160;noise &#160;&#160;&#160;= homopolymer/STR indels &#160;→ dropped</text>
<text text-anchor="start" x="371.5" y="-111.8" font-family="Helvetica,sans-Serif" font-size="9.00"> &#160;foreign &#160;= &lt; 90% id (e.g. endophyte) &#160;→ excluded</text>
</g>
<!-- s5&#45;&gt;vclass -->
<g id="edge13" class="edge">
<title>s5&#45;&gt;vclass</title>
<path fill="none" stroke="#c5221f" stroke-dasharray="1,5" d="M382.35,-185.88C400.84,-176.11 424.26,-163.72 444.35,-153.09"/>
</g>
<!-- o_cons -->
<g id="node13" class="node">
<title>o_cons</title>
<polygon fill="#e6f4ea" stroke="#34a853" points="163.5,-52 16.5,-52 16.5,-16 169.5,-16 169.5,-46 163.5,-52"/>
<polyline fill="none" stroke="#34a853" points="163.5,-52 163.5,-46 "/>
<polyline fill="none" stroke="#34a853" points="169.5,-46 163.5,-46 "/>
<text text-anchor="middle" x="93" y="-37" font-family="Helvetica,sans-Serif" font-size="10.00">consensus.fasta</text>
<text text-anchor="middle" x="93" y="-26" font-family="Helvetica,sans-Serif" font-size="10.00">(primary ribotype, 18S–26S)</text>
</g>
<!-- s5&#45;&gt;o_cons -->
<g id="edge14" class="edge">
<title>s5&#45;&gt;o_cons</title>
<path fill="none" stroke="#666666" d="M323.94,-185.97C277.38,-155.53 179.89,-91.8 127.71,-57.69"/>
<polygon fill="#666666" stroke="#666666" points="129.41,-54.62 119.13,-52.08 125.58,-60.48 129.41,-54.62"/>
</g>
<!-- o_var -->
<g id="node14" class="node">
<title>o_var</title>
<polygon fill="#e6f4ea" stroke="#34a853" points="347.5,-52 194.5,-52 194.5,-16 353.5,-16 353.5,-46 347.5,-52"/>
<polyline fill="none" stroke="#34a853" points="347.5,-52 347.5,-46 "/>
<polyline fill="none" stroke="#34a853" points="353.5,-46 347.5,-46 "/>
<text text-anchor="middle" x="274" y="-37" font-family="Helvetica,sans-Serif" font-size="10.00">variants.fasta</text>
<text text-anchor="middle" x="274" y="-26" font-family="Helvetica,sans-Serif" font-size="10.00">(hybrid / allopolyploid signal)</text>
</g>
<!-- s5&#45;&gt;o_var -->
<g id="edge15" class="edge">
<title>s5&#45;&gt;o_var</title>
<path fill="none" stroke="#666666" d="M320.78,-185.64C315.18,-181.16 309.87,-175.91 306,-170 284.46,-137.13 277.38,-91.32 275.08,-62.42"/>
<polygon fill="#666666" stroke="#666666" points="278.55,-61.98 274.41,-52.23 271.57,-62.44 278.55,-61.98"/>
</g>
<!-- o_rib -->
<g id="node18" class="node">
<title>o_rib</title>
<polygon fill="#e6f4ea" stroke="#34a853" points="496,-52 378,-52 378,-16 502,-16 502,-46 496,-52"/>
<polyline fill="none" stroke="#34a853" points="496,-52 496,-46 "/>
<polyline fill="none" stroke="#34a853" points="502,-46 496,-46 "/>
<text text-anchor="middle" x="440" y="-37" font-family="Helvetica,sans-Serif" font-size="10.00">ribotypes.tsv</text>
<text text-anchor="middle" x="440" y="-26" font-family="Helvetica,sans-Serif" font-size="10.00">(freq; foreign flagged)</text>
</g>
<!-- s5&#45;&gt;o_rib -->
<g id="edge16" class="edge">
<title>s5&#45;&gt;o_rib</title>
<path fill="none" stroke="#666666" d="M345.87,-185.68C341.94,-165.25 338.3,-130.8 351,-105 360.77,-85.14 379.16,-69.21 396.7,-57.6"/>
<polygon fill="#666666" stroke="#666666" points="398.6,-60.53 405.2,-52.24 394.87,-54.61 398.6,-60.53"/>
</g>
<!-- s6&#45;&gt;s7 -->
<!-- o_igs -->
<g id="node16" class="node">
<title>o_igs</title>
<polygon fill="#e6f4ea" stroke="#34a853" points="949.5,-52 896.5,-52 896.5,-16 955.5,-16 955.5,-46 949.5,-52"/>
<polyline fill="none" stroke="#34a853" points="949.5,-52 949.5,-46 "/>
<polyline fill="none" stroke="#34a853" points="955.5,-46 949.5,-46 "/>
<text text-anchor="middle" x="926" y="-31.5" font-family="Helvetica,sans-Serif" font-size="10.00">igs.fasta</text>
</g>
<!-- s6&#45;&gt;o_igs -->
<g id="edge17" class="edge">
<title>s6&#45;&gt;o_igs</title>
<path fill="none" stroke="#666666" d="M787.33,-185.99C806.79,-178.01 828.2,-167.09 845,-153 875.69,-127.26 899.85,-87.15 913.53,-60.97"/>
<polygon fill="#666666" stroke="#666666" points="916.67,-62.51 918.09,-52.01 910.44,-59.33 916.67,-62.51"/>
</g>
<!-- o_its -->
<g id="node15" class="node">
<title>o_its</title>
<polygon fill="#e6f4ea" stroke="#34a853" points="865,-52 731,-52 731,-16 871,-16 871,-46 865,-52"/>
<polyline fill="none" stroke="#34a853" points="865,-52 865,-46 "/>
<polyline fill="none" stroke="#34a853" points="871,-46 865,-46 "/>
<text text-anchor="middle" x="801" y="-37" font-family="Helvetica,sans-Serif" font-size="10.00">its.fasta + its_parts.fasta</text>
<text text-anchor="middle" x="801" y="-26" font-family="Helvetica,sans-Serif" font-size="10.00">(ITS barcode)</text>
</g>
<!-- s7&#45;&gt;o_its -->
<g id="edge18" class="edge">
<title>s7&#45;&gt;o_its</title>
<path fill="none" stroke="#666666" d="M747.11,-110.94C757.09,-96.87 771.41,-76.69 782.78,-60.67"/>
<polygon fill="#666666" stroke="#666666" points="785.81,-62.45 788.75,-52.26 780.11,-58.39 785.81,-62.45"/>
</g>
<!-- o_gff -->
<g id="node17" class="node">
<title>o_gff</title>
<polygon fill="#e6f4ea" stroke="#34a853" points="613,-52 527,-52 527,-16 619,-16 619,-46 613,-52"/>
<polyline fill="none" stroke="#34a853" points="613,-52 613,-46 "/>
<polyline fill="none" stroke="#34a853" points="619,-46 613,-46 "/>
<text text-anchor="middle" x="573" y="-31.5" font-family="Helvetica,sans-Serif" font-size="10.00">annotation.gff3</text>
</g>
<!-- s7&#45;&gt;o_gff -->
<g id="edge19" class="edge">
<title>s7&#45;&gt;o_gff</title>
<path fill="none" stroke="#666666" d="M693.1,-110.93C673.97,-102.52 651.33,-91.69 632,-80 621.51,-73.66 610.67,-65.82 601.19,-58.46"/>
<polygon fill="#666666" stroke="#666666" points="603.26,-55.64 593.25,-52.18 598.92,-61.13 603.26,-55.64"/>
</g>
<!-- o_rep -->
<g id="node19" class="node">
<title>o_rep</title>
<polygon fill="#e6f4ea" stroke="#34a853" points="700,-52 644,-52 644,-16 706,-16 706,-46 700,-52"/>
<polyline fill="none" stroke="#34a853" points="700,-52 700,-46 "/>
<polyline fill="none" stroke="#34a853" points="706,-46 700,-46 "/>
<text text-anchor="middle" x="675" y="-31.5" font-family="Helvetica,sans-Serif" font-size="10.00">report.txt</text>
</g>
<!-- s7&#45;&gt;o_rep -->
<g id="edge20" class="edge">
<title>s7&#45;&gt;o_rep</title>
<path fill="none" stroke="#666666" d="M724,-110.94C714.92,-96.87 701.9,-76.69 691.56,-60.67"/>
<polygon fill="#666666" stroke="#666666" points="694.5,-58.77 686.14,-52.26 688.62,-62.56 694.5,-58.77"/>
</g>
</g>
</svg>
