<?xml version="1.0" encoding="UTF-8" standalone="no"?>
<!DOCTYPE svg PUBLIC "-//W3C//DTD SVG 1.1//EN"
 "http://www.w3.org/Graphics/SVG/1.1/DTD/svg11.dtd">
<!-- Generated by graphviz version 2.43.0 (0)
 -->
<!-- Title: easy45 Pages: 1 -->
<svg width="1389pt" height="965pt"
 viewBox="0.00 0.00 1389.00 965.00" xmlns="http://www.w3.org/2000/svg" xmlns:xlink="http://www.w3.org/1999/xlink">
<g id="graph0" class="graph" transform="scale(1 1) rotate(0) translate(4 961)">
<title>easy45</title>
<polygon fill="white" stroke="transparent" points="-4,4 -4,-961 1385,-961 1385,4 -4,4"/>
<g id="clust1" class="cluster">
<title>cluster_inputs</title>
<polygon fill="white" stroke="#9aa0a6" stroke-dasharray="5,2" points="29,-824 29,-949 1205,-949 1205,-824 29,-824"/>
<text text-anchor="middle" x="60" y="-933" font-family="Helvetica,sans-Serif" font-size="15.00" fill="#5f6368">INPUT</text>
</g>
<g id="clust2" class="cluster">
<title>cluster_outputs</title>
<polygon fill="white" stroke="#9aa0a6" stroke-dasharray="5,2" points="8,-8 8,-91 1373,-91 1373,-8 8,-8"/>
<text text-anchor="middle" x="47" y="-75" font-family="Helvetica,sans-Serif" font-size="15.00" fill="#5f6368">OUTPUT</text>
</g>
<!-- reads -->
<g id="node1" class="node">
<title>reads</title>
<polygon fill="#d2e3fc" stroke="black" points="302.91,-916 91.48,-916 37.09,-832 248.52,-832 302.91,-916"/>
<text text-anchor="middle" x="170" y="-879" font-family="Helvetica,sans-Serif" font-size="15.00">HiFi reads</text>
<text text-anchor="middle" x="170" y="-862" font-family="Helvetica,sans-Serif" font-size="15.00">(FASTA/FASTQ)</text>
</g>
<!-- s0 -->
<g id="node4" class="node">
<title>s0</title>
<path fill="#fef7e0" stroke="#e8a33d" d="M592,-787C592,-787 422,-787 422,-787 416,-787 410,-781 410,-775 410,-775 410,-757 410,-757 410,-751 416,-745 422,-745 422,-745 592,-745 592,-745 598,-745 604,-751 604,-757 604,-757 604,-775 604,-775 604,-781 598,-787 592,-787"/>
<text text-anchor="middle" x="507" y="-771" font-family="Helvetica,sans-Serif" font-size="15.00">S0 &#160;Organelle depletion</text>
<text text-anchor="middle" x="507" y="-754" font-family="Helvetica,sans-Serif" font-size="15.00">minimap2 &#160;(optional)</text>
</g>
<!-- reads&#45;&gt;s0 -->
<g id="edge1" class="edge">
<title>reads&#45;&gt;s0</title>
<path fill="none" stroke="#c77800" stroke-width="1.6" d="M256.56,-844.16C277,-837.45 298.75,-830.4 319,-824 355.26,-812.54 395.59,-800.25 429.58,-790.03"/>
<polygon fill="#c77800" stroke="#c77800" stroke-width="1.6" points="430.88,-793.29 439.45,-787.07 428.86,-786.59 430.88,-793.29"/>
</g>
<!-- anchor -->
<g id="node2" class="node">
<title>anchor</title>
<polygon fill="#d2e3fc" stroke="black" points="1196.7,-916 810.62,-916 711.3,-832 1097.38,-832 1196.7,-916"/>
<text text-anchor="middle" x="954" y="-879" font-family="Helvetica,sans-Serif" font-size="15.00">Bundled 45S anchor</text>
<text text-anchor="middle" x="954" y="-862" font-family="Helvetica,sans-Serif" font-size="15.00">Arabidopsis T2T (OR453402)</text>
</g>
<!-- s1 -->
<g id="node5" class="node">
<title>s1</title>
<path fill="#fef7e0" stroke="#e8a33d" d="M1002.5,-687C1002.5,-687 771.5,-687 771.5,-687 765.5,-687 759.5,-681 759.5,-675 759.5,-675 759.5,-657 759.5,-657 759.5,-651 765.5,-645 771.5,-645 771.5,-645 1002.5,-645 1002.5,-645 1008.5,-645 1014.5,-651 1014.5,-657 1014.5,-657 1014.5,-675 1014.5,-675 1014.5,-681 1008.5,-687 1002.5,-687"/>
<text text-anchor="middle" x="887" y="-671" font-family="Helvetica,sans-Serif" font-size="15.00">S1 &#160;Recruit rDNA reads</text>
<text text-anchor="middle" x="887" y="-654" font-family="Helvetica,sans-Serif" font-size="15.00">minimap2 &#45;x map&#45;hifi vs anchor</text>
</g>
<!-- anchor&#45;&gt;s1 -->
<g id="edge4" class="edge">
<title>anchor&#45;&gt;s1</title>
<path fill="none" stroke="#c77800" stroke-width="1.6" d="M940.6,-831.81C927.64,-791.95 908.3,-732.49 896.74,-696.95"/>
<polygon fill="#c77800" stroke="#c77800" stroke-width="1.6" points="899.98,-695.59 893.56,-687.16 893.32,-697.75 899.98,-695.59"/>
</g>
<!-- orgref -->
<g id="node3" class="node">
<title>orgref</title>
<polygon fill="#e8eaed" stroke="black" points="679.2,-916 405.27,-916 334.8,-832 608.73,-832 679.2,-916"/>
<text text-anchor="middle" x="507" y="-879" font-family="Helvetica,sans-Serif" font-size="15.00">Organelle reference</text>
<text text-anchor="middle" x="507" y="-862" font-family="Helvetica,sans-Serif" font-size="15.00">(optional)</text>
</g>
<!-- orgref&#45;&gt;s0 -->
<g id="edge2" class="edge">
<title>orgref&#45;&gt;s0</title>
<path fill="none" stroke="#b0b3b8" stroke-dasharray="5,2" d="M507,-831.71C507,-820.2 507,-807.92 507,-797.18"/>
<polygon fill="#b0b3b8" stroke="#b0b3b8" points="510.5,-797.04 507,-787.04 503.5,-797.04 510.5,-797.04"/>
</g>
<!-- s0&#45;&gt;s1 -->
<g id="edge3" class="edge">
<title>s0&#45;&gt;s1</title>
<path fill="none" stroke="#c77800" stroke-width="1.6" d="M584.82,-744.93C647.19,-728.85 734.69,-706.28 799.49,-689.57"/>
<polygon fill="#c77800" stroke="#c77800" stroke-width="1.6" points="800.48,-692.93 809.29,-687.04 798.73,-686.15 800.48,-692.93"/>
<text text-anchor="middle" x="737.5" y="-712.6" font-family="Helvetica,sans-Serif" font-size="13.00">reads</text>
</g>
<!-- s2 -->
<g id="node6" class="node">
<title>s2</title>
<path fill="#fef7e0" stroke="#e8a33d" d="M1064,-587C1064,-587 710,-587 710,-587 704,-587 698,-581 698,-575 698,-575 698,-557 698,-557 698,-551 704,-545 710,-545 710,-545 1064,-545 1064,-545 1070,-545 1076,-551 1076,-557 1076,-557 1076,-575 1076,-575 1076,-581 1070,-587 1064,-587"/>
<text text-anchor="middle" x="887" y="-571" font-family="Helvetica,sans-Serif" font-size="15.00">S2 &#160;Locate 18S / 5.8S / 28S; flag spanning reads</text>
<text text-anchor="middle" x="887" y="-554" font-family="Helvetica,sans-Serif" font-size="15.00">barrnap &#45;&#45;kingdom euk</text>
</g>
<!-- s1&#45;&gt;s2 -->
<g id="edge5" class="edge">
<title>s1&#45;&gt;s2</title>
<path fill="none" stroke="#c77800" stroke-width="1.6" d="M887,-644.69C887,-631.03 887,-612.77 887,-597.38"/>
<polygon fill="#c77800" stroke="#c77800" stroke-width="1.6" points="890.5,-597.28 887,-587.28 883.5,-597.28 890.5,-597.28"/>
<text text-anchor="middle" x="961.5" y="-612.6" font-family="Helvetica,sans-Serif" font-size="13.00">recruited reads (rDNA)</text>
</g>
<!-- s3 -->
<g id="node7" class="node">
<title>s3</title>
<path fill="#fef7e0" stroke="#e8a33d" d="M916.5,-487C916.5,-487 561.5,-487 561.5,-487 555.5,-487 549.5,-481 549.5,-475 549.5,-475 549.5,-457 549.5,-457 549.5,-451 555.5,-445 561.5,-445 561.5,-445 916.5,-445 916.5,-445 922.5,-445 928.5,-451 928.5,-457 928.5,-457 928.5,-475 928.5,-475 928.5,-481 922.5,-487 916.5,-487"/>
<text text-anchor="middle" x="739" y="-471" font-family="Helvetica,sans-Serif" font-size="15.00">S3 &#160;Excise one transcribed unit, orient 18S→26S</text>
<text text-anchor="middle" x="739" y="-454" font-family="Helvetica,sans-Serif" font-size="15.00">core (for clustering) + margin (for consensus)</text>
</g>
<!-- s2&#45;&gt;s3 -->
<g id="edge6" class="edge">
<title>s2&#45;&gt;s3</title>
<path fill="none" stroke="#c77800" stroke-width="1.6" d="M856.69,-544.93C833.85,-529.8 802.34,-508.94 777.68,-492.61"/>
<polygon fill="#c77800" stroke="#c77800" stroke-width="1.6" points="779.54,-489.64 769.27,-487.04 775.67,-495.48 779.54,-489.64"/>
<text text-anchor="middle" x="892" y="-512.6" font-family="Helvetica,sans-Serif" font-size="13.00">per&#45;read gene coords</text>
</g>
<!-- s6 -->
<g id="node10" class="node">
<title>s6</title>
<path fill="#fef7e0" stroke="#e8a33d" d="M1224,-273C1224,-273 868,-273 868,-273 862,-273 856,-267 856,-261 856,-261 856,-243 856,-243 856,-237 862,-231 868,-231 868,-231 1224,-231 1224,-231 1230,-231 1236,-237 1236,-243 1236,-243 1236,-261 1236,-261 1236,-267 1230,-273 1224,-273"/>
<text text-anchor="middle" x="1046" y="-257" font-family="Helvetica,sans-Serif" font-size="15.00">S6 &#160;IGS recovery (complete&#45;only, length&#45;binned)</text>
<text text-anchor="middle" x="1046" y="-240" font-family="Helvetica,sans-Serif" font-size="15.00">abpoa within length class</text>
</g>
<!-- s2&#45;&gt;s6 -->
<g id="edge10" class="edge">
<title>s2&#45;&gt;s6</title>
<path fill="none" stroke="#b0b3b8" stroke-dasharray="5,2" d="M943.67,-544.9C953.9,-539.14 963.64,-531.94 971,-523 1029.74,-451.69 1042.61,-337.59 1045.33,-283.43"/>
<polygon fill="#b0b3b8" stroke="#b0b3b8" points="1048.84,-283.26 1045.76,-273.12 1041.85,-282.97 1048.84,-283.26"/>
<text text-anchor="middle" x="1081" y="-412.6" font-family="Helvetica,sans-Serif" font-size="13.00">reads spanning</text>
<text text-anchor="middle" x="1081" y="-398.6" font-family="Helvetica,sans-Serif" font-size="13.00">26S → next 18S</text>
</g>
<!-- s4 -->
<g id="node8" class="node">
<title>s4</title>
<path fill="#fef7e0" stroke="#e8a33d" d="M849.5,-373C849.5,-373 628.5,-373 628.5,-373 622.5,-373 616.5,-367 616.5,-361 616.5,-361 616.5,-343 616.5,-343 616.5,-337 622.5,-331 628.5,-331 628.5,-331 849.5,-331 849.5,-331 855.5,-331 861.5,-337 861.5,-343 861.5,-343 861.5,-361 861.5,-361 861.5,-367 855.5,-373 849.5,-373"/>
<text text-anchor="middle" x="739" y="-357" font-family="Helvetica,sans-Serif" font-size="15.00">S4 &#160;Coarse cluster of units</text>
<text text-anchor="middle" x="739" y="-340" font-family="Helvetica,sans-Serif" font-size="15.00">vsearch &#45;&#45;cluster_size &#45;&#45;id 0.97</text>
</g>
<!-- s3&#45;&gt;s4 -->
<g id="edge7" class="edge">
<title>s3&#45;&gt;s4</title>
<path fill="none" stroke="#c77800" stroke-width="1.6" d="M739,-444.98C739,-427.88 739,-403.03 739,-383.47"/>
<polygon fill="#c77800" stroke="#c77800" stroke-width="1.6" points="742.5,-383.23 739,-373.23 735.5,-383.23 742.5,-383.23"/>
<text text-anchor="middle" x="772" y="-405.6" font-family="Helvetica,sans-Serif" font-size="13.00">core units</text>
</g>
<!-- s5 -->
<g id="node9" class="node">
<title>s5</title>
<path fill="#fbbc04" stroke="#b06000" stroke-width="2" d="M714.5,-273C714.5,-273 285.5,-273 285.5,-273 279.5,-273 273.5,-267 273.5,-261 273.5,-261 273.5,-243 273.5,-243 273.5,-237 279.5,-231 285.5,-231 285.5,-231 714.5,-231 714.5,-231 720.5,-231 726.5,-237 726.5,-243 726.5,-243 726.5,-261 726.5,-261 726.5,-267 720.5,-273 714.5,-273"/>
<text text-anchor="middle" x="500" y="-257" font-family="Helvetica,sans-Serif" font-size="15.00">S5 &#160;Consensus + mature&#45;boundary trim + ribotype calling</text>
<text text-anchor="middle" x="500" y="-240" font-family="Helvetica,sans-Serif" font-size="15.00">abpoa &#160;| &#160;cmsearch vs Rfam SSU+LSU &#160;| &#160;variant.py</text>
</g>
<!-- s3&#45;&gt;s5 -->
<g id="edge8" class="edge">
<title>s3&#45;&gt;s5</title>
<path fill="none" stroke="#b0b3b8" stroke-dasharray="5,2" d="M632.75,-444.94C590.46,-431.56 545.24,-409.44 517,-373 497.29,-347.57 495.06,-309.7 496.46,-283.32"/>
<polygon fill="#b0b3b8" stroke="#b0b3b8" points="499.97,-283.37 497.21,-273.14 492.99,-282.86 499.97,-283.37"/>
<text text-anchor="middle" x="559" y="-348.6" font-family="Helvetica,sans-Serif" font-size="13.00">margin units</text>
</g>
<!-- s4&#45;&gt;s5 -->
<g id="edge9" class="edge">
<title>s4&#45;&gt;s5</title>
<path fill="none" stroke="#c77800" stroke-width="1.6" d="M690.06,-330.93C651.88,-315.28 598.72,-293.48 558.33,-276.92"/>
<polygon fill="#c77800" stroke="#c77800" stroke-width="1.6" points="559.46,-273.6 548.88,-273.04 556.8,-280.07 559.46,-273.6"/>
<text text-anchor="middle" x="682" y="-298.6" font-family="Helvetica,sans-Serif" font-size="13.00">clusters + freq</text>
</g>
<!-- s7 -->
<g id="node11" class="node">
<title>s7</title>
<path fill="#fef7e0" stroke="#e8a33d" d="M1180,-175C1180,-175 912,-175 912,-175 906,-175 900,-169 900,-163 900,-163 900,-145 900,-145 900,-139 906,-133 912,-133 912,-133 1180,-133 1180,-133 1186,-133 1192,-139 1192,-145 1192,-145 1192,-163 1192,-163 1192,-169 1186,-175 1180,-175"/>
<text text-anchor="middle" x="1046" y="-159" font-family="Helvetica,sans-Serif" font-size="15.00">S7 &#160;Annotate + ITS barcode + report</text>
<text text-anchor="middle" x="1046" y="-142" font-family="Helvetica,sans-Serif" font-size="15.00">ITSx</text>
</g>
<!-- s5&#45;&gt;s7 -->
<g id="edge11" class="edge">
<title>s5&#45;&gt;s7</title>
<path fill="none" stroke="#c77800" stroke-width="1.6" d="M622.47,-230.96C697.94,-218.43 796.66,-201.75 884,-186 899.87,-183.14 916.6,-180.04 933.03,-176.94"/>
<polygon fill="#c77800" stroke="#c77800" stroke-width="1.6" points="934.05,-180.31 943.22,-175.01 932.75,-173.43 934.05,-180.31"/>
</g>
<!-- vclass -->
<g id="node12" class="node">
<title>vclass</title>
<polygon fill="#fce8e6" stroke="#c5221f" points="862,-186 512,-186 512,-122 868,-122 868,-180 862,-186"/>
<polyline fill="none" stroke="#c5221f" points="862,-186 862,-180 "/>
<polyline fill="none" stroke="#c5221f" points="868,-180 862,-180 "/>
<text text-anchor="start" x="520" y="-171.6" font-family="Helvetica,sans-Serif" font-size="13.00">variant.py (vs primary):</text>
<text text-anchor="start" x="520" y="-157.6" font-family="Helvetica,sans-Serif" font-size="13.00"> &#160;variant &#160;= real subs, ≥ 90% id &#160;→ kept</text>
<text text-anchor="start" x="520" y="-143.6" font-family="Helvetica,sans-Serif" font-size="13.00"> &#160;noise &#160;&#160;&#160;= homopolymer/STR indels &#160;→ dropped</text>
<text text-anchor="start" x="520" y="-129.6" font-family="Helvetica,sans-Serif" font-size="13.00"> &#160;foreign &#160;= &lt; 90% id (e.g. endophyte) &#160;→ excluded</text>
</g>
<!-- s5&#45;&gt;vclass -->
<g id="edge13" class="edge">
<title>s5&#45;&gt;vclass</title>
<path fill="none" stroke="#c5221f" stroke-width="1.6" stroke-dasharray="1,5" d="M539.83,-230.88C565.51,-217.9 599.42,-200.77 628.52,-186.06"/>
</g>
<!-- o_cons -->
<g id="node13" class="node">
<title>o_cons</title>
<polygon fill="#e6f4ea" stroke="#34a853" points="240,-58 16,-58 16,-16 246,-16 246,-52 240,-58"/>
<polyline fill="none" stroke="#34a853" points="240,-58 240,-52 "/>
<polyline fill="none" stroke="#34a853" points="246,-52 240,-52 "/>
<text text-anchor="middle" x="131" y="-42" font-family="Helvetica,sans-Serif" font-size="15.00">consensus.fasta</text>
<text text-anchor="middle" x="131" y="-25" font-family="Helvetica,sans-Serif" font-size="15.00">(primary ribotype, 18S–26S)</text>
</g>
<!-- s5&#45;&gt;o_cons -->
<g id="edge14" class="edge">
<title>s5&#45;&gt;o_cons</title>
<path fill="none" stroke="#c77800" stroke-width="1.6" d="M465.29,-230.96C397.84,-192.03 249.23,-106.25 175,-63.4"/>
<polygon fill="#c77800" stroke="#c77800" stroke-width="1.6" points="176.3,-60.11 165.89,-58.14 172.8,-66.17 176.3,-60.11"/>
</g>
<!-- o_var -->
<g id="node14" class="node">
<title>o_var</title>
<polygon fill="#e6f4ea" stroke="#34a853" points="510,-58 278,-58 278,-16 516,-16 516,-52 510,-58"/>
<polyline fill="none" stroke="#34a853" points="510,-58 510,-52 "/>
<polyline fill="none" stroke="#34a853" points="516,-52 510,-52 "/>
<text text-anchor="middle" x="397" y="-42" font-family="Helvetica,sans-Serif" font-size="15.00">variants.fasta</text>
<text text-anchor="middle" x="397" y="-25" font-family="Helvetica,sans-Serif" font-size="15.00">(hybrid / allopolyploid signal)</text>
</g>
<!-- s5&#45;&gt;o_var -->
<g id="edge15" class="edge">
<title>s5&#45;&gt;o_var</title>
<path fill="none" stroke="#c77800" stroke-width="1.6" d="M460.77,-230.87C452.19,-224.86 443.92,-217.55 438,-209 408.35,-166.16 400.01,-104.45 397.75,-68.06"/>
<polygon fill="#c77800" stroke="#c77800" stroke-width="1.6" points="401.24,-67.88 397.24,-58.07 394.25,-68.23 401.24,-67.88"/>
</g>
<!-- o_rib -->
<g id="node18" class="node">
<title>o_rib</title>
<polygon fill="#e6f4ea" stroke="#34a853" points="725.5,-58 548.5,-58 548.5,-16 731.5,-16 731.5,-52 725.5,-58"/>
<polyline fill="none" stroke="#34a853" points="725.5,-58 725.5,-52 "/>
<polyline fill="none" stroke="#34a853" points="731.5,-52 725.5,-52 "/>
<text text-anchor="middle" x="640" y="-42" font-family="Helvetica,sans-Serif" font-size="15.00">ribotypes.tsv</text>
<text text-anchor="middle" x="640" y="-25" font-family="Helvetica,sans-Serif" font-size="15.00">(freq; foreign flagged)</text>
</g>
<!-- s5&#45;&gt;o_rib -->
<g id="edge16" class="edge">
<title>s5&#45;&gt;o_rib</title>
<path fill="none" stroke="#c77800" stroke-width="1.6" d="M493.19,-230.64C485.51,-203.8 476.47,-156 496,-122 506.27,-104.13 549.68,-80.14 586.18,-62.38"/>
<polygon fill="#c77800" stroke="#c77800" stroke-width="1.6" points="587.79,-65.49 595.29,-58 584.76,-59.18 587.79,-65.49"/>
</g>
<!-- s6&#45;&gt;s7 -->
<!-- o_igs -->
<g id="node16" class="node">
<title>o_igs</title>
<polygon fill="#e6f4ea" stroke="#34a853" points="1359,-55 1285,-55 1285,-19 1365,-19 1365,-49 1359,-55"/>
<polyline fill="none" stroke="#34a853" points="1359,-55 1359,-49 "/>
<polyline fill="none" stroke="#34a853" points="1365,-49 1359,-49 "/>
<text text-anchor="middle" x="1325" y="-33.5" font-family="Helvetica,sans-Serif" font-size="15.00">igs.fasta</text>
</g>
<!-- s6&#45;&gt;o_igs -->
<g id="edge17" class="edge">
<title>s6&#45;&gt;o_igs</title>
<path fill="none" stroke="#c77800" stroke-width="1.6" d="M1118.73,-230.87C1148.24,-220.49 1181.54,-205.77 1208,-186 1253.37,-152.1 1290.83,-96.46 1310.37,-63.93"/>
<polygon fill="#c77800" stroke="#c77800" stroke-width="1.6" points="1313.56,-65.4 1315.62,-55.01 1307.53,-61.85 1313.56,-65.4"/>
</g>
<!-- o_its -->
<g id="node15" class="node">
<title>o_its</title>
<polygon fill="#e6f4ea" stroke="#34a853" points="1246.5,-58 1049.5,-58 1049.5,-16 1252.5,-16 1252.5,-52 1246.5,-58"/>
<polyline fill="none" stroke="#34a853" points="1246.5,-58 1246.5,-52 "/>
<polyline fill="none" stroke="#34a853" points="1252.5,-52 1246.5,-52 "/>
<text text-anchor="middle" x="1151" y="-42" font-family="Helvetica,sans-Serif" font-size="15.00">its.fasta + its_parts.fasta</text>
<text text-anchor="middle" x="1151" y="-25" font-family="Helvetica,sans-Serif" font-size="15.00">(ITS barcode)</text>
</g>
<!-- s7&#45;&gt;o_its -->
<g id="edge18" class="edge">
<title>s7&#45;&gt;o_its</title>
<path fill="none" stroke="#c77800" stroke-width="1.6" d="M1064.29,-132.97C1081.27,-114.37 1106.72,-86.5 1125.66,-65.75"/>
<polygon fill="#c77800" stroke="#c77800" stroke-width="1.6" points="1128.41,-67.93 1132.57,-58.19 1123.24,-63.21 1128.41,-67.93"/>
</g>
<!-- o_gff -->
<g id="node17" class="node">
<title>o_gff</title>
<polygon fill="#e6f4ea" stroke="#34a853" points="890.5,-55 763.5,-55 763.5,-19 896.5,-19 896.5,-49 890.5,-55"/>
<polyline fill="none" stroke="#34a853" points="890.5,-55 890.5,-49 "/>
<polyline fill="none" stroke="#34a853" points="896.5,-49 890.5,-49 "/>
<text text-anchor="middle" x="830" y="-33.5" font-family="Helvetica,sans-Serif" font-size="15.00">annotation.gff3</text>
</g>
<!-- s7&#45;&gt;o_gff -->
<g id="edge19" class="edge">
<title>s7&#45;&gt;o_gff</title>
<path fill="none" stroke="#c77800" stroke-width="1.6" d="M999.09,-132.95C973.28,-121.47 940.91,-106.33 913,-91 896.21,-81.78 878.23,-70.48 863.3,-60.69"/>
<polygon fill="#c77800" stroke="#c77800" stroke-width="1.6" points="865.17,-57.73 854.9,-55.12 861.31,-63.56 865.17,-57.73"/>
</g>
<!-- o_rep -->
<g id="node19" class="node">
<title>o_rep</title>
<polygon fill="#e6f4ea" stroke="#34a853" points="1011,-55 929,-55 929,-19 1017,-19 1017,-49 1011,-55"/>
<polyline fill="none" stroke="#34a853" points="1011,-55 1011,-49 "/>
<polyline fill="none" stroke="#34a853" points="1017,-49 1011,-49 "/>
<text text-anchor="middle" x="973" y="-33.5" font-family="Helvetica,sans-Serif" font-size="15.00">report.txt</text>
</g>
<!-- s7&#45;&gt;o_rep -->
<g id="edge20" class="edge">
<title>s7&#45;&gt;o_rep</title>
<path fill="none" stroke="#c77800" stroke-width="1.6" d="M1033.28,-132.97C1021.11,-113.8 1002.7,-84.78 989.42,-63.87"/>
<polygon fill="#c77800" stroke="#c77800" stroke-width="1.6" points="992.22,-61.74 983.9,-55.18 986.31,-65.5 992.22,-61.74"/>
</g>
</g>
</svg>
